<?xml version="1.0" encoding="utf-8"?>
<!-- Generator: Adobe Illustrator 25.0.0, SVG Export Plug-In . SVG Version: 6.00 Build 0)  -->
<svg version="1.1" id="Layer_1" xmlns="http://www.w3.org/2000/svg" xmlns:xlink="http://www.w3.org/1999/xlink" x="0px" y="0px"
	 viewBox="0 0 201 44" enable-background="new 0 0 201 44" xml:space="preserve">
<g>
	<linearGradient id="SVGID_1_" gradientUnits="userSpaceOnUse" x1="46.7824" y1="19.2226" x2="96.2674" y2="19.2226">
		<stop  offset="0" style="stop-color:#F256FD"/>
		<stop  offset="0" style="stop-color:#7A76FF"/>
		<stop  offset="1" style="stop-color:#F256FD;stop-opacity:0.8274"/>
		<stop  offset="1" style="stop-color:#7F75FF"/>
		<stop  offset="1" style="stop-color:#9070FF;stop-opacity:0.9725"/>
	</linearGradient>
	<path fill="url(#SVGID_1_)" d="M93.07,31.9c-0.39-0.41-0.7-0.88-0.92-1.41c-0.22-0.54-0.34-1.08-0.34-1.64V9.14
		c0-1.24-0.25-2.45-0.75-3.58c-0.52-1.12-1.19-2.11-2.03-2.94c-0.84-0.84-1.77-1.49-2.81-1.93c-0.57-0.25-1.12-0.43-1.63-0.53
		c-0.52-0.1-1.09-0.14-1.7-0.14h-11.2c-1.12,0-2.25,0.22-3.37,0.68s-2.11,1.12-2.95,1.99c-0.85,0.87-1.49,1.85-1.94,2.94
		s-0.67,2.27-0.67,3.51v0.39h-2.23c-1.13,0-2.25,0.22-3.37,0.66c-1.12,0.44-2.07,1.04-2.86,1.77c-0.91,0.84-1.59,1.8-2.04,2.82
		c-0.45,1.04-0.67,2.17-0.67,3.41v10.72c0,1.17-0.43,2.17-1.28,2.98c-0.45,0.41-0.96,0.75-1.52,0.98c-0.57,0.23-0.8,0.26-1.34,0.26
		h-0.46l0.13,4.84v0.01l-0.32,0.43c1.12,0,2.58-0.69,3.73-1.19c1.13-0.48,2.1-1.12,2.88-1.89l0.36-0.4l0.31,0.33l0.24,0.25
		c0.87,0.77,1.83,1.37,2.89,1.81c1.06,0.43,2.16,0.65,3.34,0.65h22.36c1.19,0,2.33-0.23,3.44-0.72c1.12-0.47,2.05-1.11,2.82-1.92
		l0.43-0.46l0.43,0.46c0.87,0.86,1.8,1.51,2.85,1.98c0.6,0.25,1.09,0.41,1.47,0.48c0.39,0.08,0.73,0.12,1.02,0.15
		c0.29,0.01,0.6,0.03,0.92,0.03v-4.75C95.04,33.23,93.96,32.78,93.07,31.9z M73.93,29.32c0,1.02-0.41,1.91-1.2,2.67
		c-0.92,0.83-2,1.24-3.25,1.24h-8.95c-1.3,0-2.39-0.41-3.28-1.24c-0.35-0.33-0.64-0.73-0.88-1.22c-0.21-0.57-0.32-1.05-0.32-1.45
		V18.19c0-0.51,0.11-0.99,0.34-1.46c0.24-0.47,0.54-0.88,0.95-1.24c0.39-0.36,0.87-0.66,1.4-0.88c0.6-0.23,1.2-0.35,1.8-0.35h8.95
		c0.66,0,1.27,0.12,1.84,0.37c0.57,0.25,1.06,0.57,1.45,0.94c0.39,0.37,0.66,0.75,0.82,1.12c0.17,0.36,0.27,0.65,0.29,0.87
		c0.03,0.21,0.04,0.41,0.04,0.64V29.32z M87.34,28.85c0,1.19-0.42,2.2-1.26,3.05c-0.42,0.41-0.91,0.75-1.47,0.98
		c-0.56,0.23-1.13,0.35-1.73,0.35h-5.46c0.32-0.64,0.57-1.29,0.74-1.93c0.17-0.66,0.24-1.33,0.24-1.98V18.19
		c0-1.22-0.24-2.35-0.73-3.41c-0.5-1.05-1.17-1.99-2.04-2.8c-0.87-0.83-1.82-1.44-2.84-1.84c-1.03-0.41-2.14-0.61-3.32-0.61h-2.23
		V9.14c0-1.17,0.42-2.18,1.26-3.04c0.49-0.41,0.96-0.75,1.44-0.98c0.6-0.23,1.19-0.35,1.75-0.35h11.2c1.24,0,2.3,0.44,3.2,1.33
		c0.39,0.39,0.71,0.84,0.92,1.38c0.22,0.53,0.34,1.09,0.34,1.66V28.85z"/>
	<linearGradient id="SVGID_2_" gradientUnits="userSpaceOnUse" x1="96.1887" y1="19.0411" x2="105.2018" y2="19.0411">
		<stop  offset="0" style="stop-color:#F256FD"/>
		<stop  offset="0" style="stop-color:#7A76FF"/>
		<stop  offset="1" style="stop-color:#F256FD;stop-opacity:0.8274"/>
		<stop  offset="1" style="stop-color:#7F75FF"/>
		<stop  offset="1" style="stop-color:#9070FF;stop-opacity:0.9725"/>
	</linearGradient>
	<path fill="url(#SVGID_2_)" d="M105.2,0.02v30.67c0,0.97-0.25,1.92-0.74,2.84c-0.49,0.92-1.16,1.72-1.99,2.4
		c-0.84,0.68-1.78,1.2-2.84,1.58c-1.06,0.37-2.2,0.56-3.44,0.56v-3.85h0.14h-0.14c0.6,0,1.2-0.1,1.79-0.31
		c0.59-0.21,1.06-0.46,1.41-0.75c0.86-0.66,1.28-1.48,1.28-2.45V0.02H105.2z"/>
	<linearGradient id="SVGID_3_" gradientUnits="userSpaceOnUse" x1="106.9008" y1="20.2266" x2="129.2419" y2="20.2266">
		<stop  offset="0" style="stop-color:#F256FD"/>
		<stop  offset="0" style="stop-color:#7A76FF"/>
		<stop  offset="1" style="stop-color:#F256FD;stop-opacity:0.8274"/>
		<stop  offset="1" style="stop-color:#7F75FF"/>
		<stop  offset="1" style="stop-color:#9070FF;stop-opacity:0.9725"/>
	</linearGradient>
	<path fill="url(#SVGID_3_)" d="M111.35,2.53h4.48c1.15,0,2.27,0.22,3.36,0.65c1.09,0.43,2.07,1.05,2.92,1.84
		c0.8,0.74,1.44,1.64,1.93,2.7c0.48,1.06,0.72,2.17,0.72,3.32v0.35v17.99c0,0.52,0.11,1.03,0.33,1.53c0.22,0.5,0.53,0.96,0.93,1.39
		c0.38,0.36,0.86,0.67,1.42,0.92c0.55,0.22,1.15,0.32,1.8,0.32h-0.14h0.14v4.38h-0.11h0.11c-0.33,0-0.64-0.01-0.93-0.03
		c-0.29-0.02-0.63-0.06-1.01-0.13c-0.38-0.07-0.86-0.22-1.42-0.45c-0.56-0.22-1.08-0.48-1.54-0.76c-0.46-0.28-0.92-0.64-1.38-1.09
		l-0.46-0.46l-0.38,0.41c-0.73,0.72-1.68,1.33-2.87,1.84c-1.06,0.42-2.19,0.62-3.41,0.62h-8.93v-4.38h8.93
		c1.27,0,2.34-0.42,3.2-1.27c0.84-0.74,1.26-1.68,1.26-2.84V11.39v-0.35c0-0.54-0.11-1.06-0.31-1.55c-0.21-0.5-0.52-0.92-0.94-1.28
		c-0.84-0.83-1.9-1.24-3.2-1.24h-4.48V2.53z"/>
	<g>
		<g>
			<g>
				<linearGradient id="SVGID_4_" gradientUnits="userSpaceOnUse" x1="16.5579" y1="35.7828" x2="54.0592" y2="35.7828">
					<stop  offset="0" style="stop-color:#F256FD"/>
					<stop  offset="0" style="stop-color:#7A76FF"/>
					<stop  offset="1" style="stop-color:#F256FD;stop-opacity:0.8274"/>
					<stop  offset="1" style="stop-color:#7F75FF"/>
					<stop  offset="1" style="stop-color:#9070FF;stop-opacity:0.9725"/>
				</linearGradient>
				<path fill="url(#SVGID_4_)" d="M54.06,34.4v0.87l-0.31-0.33l-0.36,0.4c-0.78,0.77-1.75,1.41-2.88,1.89
					c-1.15,0.5-2.61,1.19-3.73,1.19H17.81c-0.7,0-1.26-0.55-1.26-1.26V34.4c0-0.69,0.56-1.26,1.26-1.26H52.8
					C53.5,33.14,54.06,33.71,54.06,34.4z"/>
			</g>
			<g>
				<g>
					<linearGradient id="SVGID_5_" gradientUnits="userSpaceOnUse" x1="0.5262" y1="35.7857" x2="27.3629" y2="35.7857">
						<stop  offset="0" style="stop-color:#F256FD"/>
						<stop  offset="0" style="stop-color:#7A76FF"/>
						<stop  offset="1" style="stop-color:#F256FD;stop-opacity:0.8274"/>
						<stop  offset="1" style="stop-color:#7F75FF"/>
						<stop  offset="1" style="stop-color:#9070FF;stop-opacity:0.9725"/>
					</linearGradient>
					<path fill="url(#SVGID_5_)" d="M26.91,29.76l-6.07,5.06c-0.6,0.5-0.6,1.42,0,1.92l6.07,5.06c1.05,0.87,0.14,2.54-1.17,2.16
						l-24.3-6.98c-1.22-0.35-1.22-2.06,0-2.41l24.3-6.98C27.05,27.23,27.95,28.89,26.91,29.76z"/>
				</g>
				<g>
					<linearGradient id="SVGID_6_" gradientUnits="userSpaceOnUse" x1="9.1126" y1="33.0696" x2="22.368" y2="33.0696">
						<stop  offset="0" style="stop-color:#F256FD"/>
						<stop  offset="0" style="stop-color:#7A76FF"/>
						<stop  offset="1" style="stop-color:#F256FD;stop-opacity:0.8274"/>
						<stop  offset="1" style="stop-color:#7F75FF"/>
						<stop  offset="1" style="stop-color:#9070FF;stop-opacity:0.9725"/>
					</linearGradient>
					<path fill="url(#SVGID_6_)" d="M20.76,30.4l-10.71,2.92c-1.42,0.39-1.14,2.46,0.34,2.46h7.06c0.29,0,0.57-0.1,0.8-0.28
						l3.66-2.92C22.96,31.73,22.08,30.04,20.76,30.4z"/>
				</g>
			</g>
		</g>
	</g>
	<g>
		<g>
			<g>
				<linearGradient id="SVGID_7_" gradientUnits="userSpaceOnUse" x1="167.1209" y1="19.2226" x2="174.1593" y2="19.2226">
					<stop  offset="0" style="stop-color:#F256FD"/>
					<stop  offset="0" style="stop-color:#7A76FF"/>
					<stop  offset="1" style="stop-color:#F256FD;stop-opacity:0.8274"/>
					<stop  offset="1" style="stop-color:#7F75FF"/>
					<stop  offset="1" style="stop-color:#9070FF;stop-opacity:0.9725"/>
				</linearGradient>
				<path fill="url(#SVGID_7_)" d="M172.5,21.99h-3.72c-0.92,0-1.66-0.73-1.66-1.64V18.1c0-0.91,0.74-1.64,1.66-1.64h3.72
					c0.92,0,1.66,0.73,1.66,1.64v2.25C174.16,21.25,173.42,21.99,172.5,21.99z"/>
			</g>
			<g>
				<g>
					<linearGradient id="SVGID_8_" gradientUnits="userSpaceOnUse" x1="172.0102" y1="19.2226" x2="200.5262" y2="19.2226">
						<stop  offset="0" style="stop-color:#F256FD"/>
						<stop  offset="0" style="stop-color:#7A76FF"/>
						<stop  offset="1" style="stop-color:#F256FD;stop-opacity:0.8274"/>
						<stop  offset="1" style="stop-color:#7F75FF"/>
						<stop  offset="1" style="stop-color:#9070FF;stop-opacity:0.9725"/>
					</linearGradient>
					<path fill="url(#SVGID_8_)" d="M172.81,17.79l12.73-7.6c0.26-0.15,0.55-0.24,0.86-0.24h12.47c1.48,0,2.22,1.77,1.17,2.8
						l-5.36,5.31c-0.65,0.64-0.65,1.68,0,2.32l5.36,5.31c1.04,1.03,0.3,2.8-1.17,2.8h-12.47c-0.3,0-0.6-0.08-0.86-0.24l-12.73-7.6
						c-0.5-0.3-0.8-0.83-0.8-1.4v-0.06C172.01,18.62,172.31,18.09,172.81,17.79z"/>
				</g>
			</g>
		</g>
	</g>
	<linearGradient id="SVGID_9_" gradientUnits="userSpaceOnUse" x1="129.1327" y1="20.294" x2="169.1718" y2="20.294">
		<stop  offset="0" style="stop-color:#F256FD"/>
		<stop  offset="0" style="stop-color:#7A76FF"/>
		<stop  offset="1" style="stop-color:#F256FD;stop-opacity:0.8274"/>
		<stop  offset="1" style="stop-color:#7F75FF"/>
		<stop  offset="1" style="stop-color:#9070FF;stop-opacity:0.9725"/>
	</linearGradient>
	<path fill="url(#SVGID_9_)" d="M135.85,35.03l-0.44,0.43c-0.24,0.23-0.47,0.44-0.71,0.62c-0.24,0.18-0.46,0.33-0.68,0.46
		c-0.44,0.29-0.94,0.54-1.5,0.76c-1,0.42-2.13,0.62-3.39,0.62h0.11h-0.11v-4.4h0.11h-0.11c1.27,0,2.35-0.4,3.22-1.22
		c0.4-0.4,0.71-0.85,0.93-1.35c0.22-0.5,0.33-1.02,0.33-1.54V11.47v-0.33c0-1.15,0.25-2.27,0.75-3.36c0.5-1.09,1.13-1.98,1.9-2.69
		c0.89-0.79,1.86-1.4,2.9-1.81c0.56-0.23,1.11-0.4,1.63-0.49c0.52-0.09,1.09-0.13,1.71-0.13h17.81c1.11,0,2.23,0.23,3.37,0.69
		c1.14,0.46,2.12,1.07,2.94,1.82c0.82,0.76,1.45,1.65,1.9,2.68c0.45,1.03,0.67,2.13,0.67,3.3v18.27c0,1.17-0.25,2.27-0.74,3.31
		c-0.49,1.04-1.14,1.95-1.95,2.73c-0.81,0.78-1.73,1.39-2.76,1.81c-1.03,0.42-2.17,0.64-3.43,0.64h-17.81
		c-1.18,0-2.31-0.22-3.39-0.66c-1.07-0.44-2.02-1.04-2.84-1.8L135.85,35.03z M140.74,7.39c-0.58,0.27-1.06,0.58-1.42,0.92
		c-0.82,0.76-1.23,1.7-1.23,2.84v0.33v17.94c0,0.56,0.1,1.09,0.3,1.59c0.24,0.5,0.55,0.92,0.93,1.24c0.91,0.81,1.97,1.22,3.17,1.22
		h17.81c0.58,0,1.16-0.1,1.72-0.3c0.58-0.23,1.07-0.54,1.45-0.92c0.86-0.74,1.28-1.68,1.28-2.84V11.15c0-1.1-0.43-2.04-1.28-2.84
		c-0.51-0.41-0.99-0.71-1.45-0.89c-0.53-0.23-1.1-0.35-1.72-0.35h-17.81C141.87,7.07,141.29,7.18,140.74,7.39z"/>
</g>
</svg>
