<?xml version="1.0" encoding="utf-8"?>
<!-- Generator: Adobe Illustrator 25.0.0, SVG Export Plug-In . SVG Version: 6.00 Build 0)  -->
<svg version="1.1" id="Layer_1" xmlns="http://www.w3.org/2000/svg" xmlns:xlink="http://www.w3.org/1999/xlink" x="0px" y="0px"
	 viewBox="0 0 134 155" enable-background="new 0 0 134 155" xml:space="preserve">
<g>
	<g>
		<linearGradient id="SVGID_1_" gradientUnits="userSpaceOnUse" x1="1.7396" y1="77.836" x2="132.7156" y2="77.836">
			<stop  offset="0.2235" style="stop-color:#7A76FF"/>
			<stop  offset="0.5754" style="stop-color:#F256FD"/>
			<stop  offset="0.6341" style="stop-color:#F256FD;stop-opacity:0.8274"/>
			<stop  offset="0.7905" style="stop-color:#9070FF;stop-opacity:0.9725"/>
			<stop  offset="0.8771" style="stop-color:#7F75FF"/>
		</linearGradient>
		<path fill="url(#SVGID_1_)" d="M89.59,36.97c9.47-0.65,17.03-1.78,24.54-1.54c10.83,0.34,18.39,8.38,18.46,19.27
			c0.18,26.75,0.15,53.5,0,80.24c-0.06,10.32-6.18,17.49-16.35,19.11c-4.71,0.75-10.05,1.63-14.33,0.18
			c-11.64-3.96-23.01-0.94-34.45-0.15c-21.17,1.46-42.01-0.77-62.72-4.88c-0.82-0.16-1.57-0.7-3-1.36
			c4.24-18.41,11.13-35.72,20.99-52.25c-2.41-2.04-4.68-3.69-6.63-5.65c-7.2-7.25-7.2-16.48-5.28-25.31
			c4.85-22.28,14.87-42.07,31.2-58.27c6.94-6.88,15.23-7.86,22.32-1.07c7.97,7.64,14.51,16.79,21.49,25.43
			C87.72,33.04,88.96,35.89,89.59,36.97z M86.54,149.76c-1.04-7.13-2.1-13.21-2.76-19.34c-0.37-3.47-0.49-7.07,0-10.51
			c2.37-16.66-2.67-30.63-14.78-42.12c-3.39-3.22-3.26-5.95-0.25-9.49c5.28-6.22,8.67-13.64,7.1-21.79c-0.65-3.36-4.08-7.2-7.26-8.8
			c-4.06-2.04-8.62-0.49-11.45,3.77c-1.13,1.7-2.19,3.44-3.48,5.47c-4.48-8.91-9.32-11.67-15.55-9.34
			c-5.41,2.02-8.37,8.57-6.22,16.25c1.39,4.95,3.63,10.01,6.78,14.01c3.17,4.03,2.69,6.41-0.19,10.11
			c-5.51,7.08-10.79,14.4-15.55,21.99c-8.91,14.19-14.42,29.78-18.5,46.59C32.46,153.09,59.98,153.75,86.54,149.76z M24.16,92.64
			c4.23-5.46,7.9-10.65,12.05-15.42c2.7-3.1,1.85-5.1,0.15-8.48c-3.17-6.31-6.48-13.12-7.15-19.98c-0.97-9.9,7.91-16.46,16.8-13.53
			c2.94,0.97,5.4,3.38,8.07,5.14c6.42-5.86,12.17-7.27,17.67-4.33c5.66,3.03,8.5,9.73,6.25,17.79c-1.49,5.36-4.66,10.25-6.89,15.42
			c-0.76,1.76-1.99,4.48-1.25,5.54c3.82,5.48,8.2,10.56,12.39,15.78c1.44-9.83,1.39-19.35,1.46-28.87
			c0.05-6.74-0.87-13.68,3.98-19.5c0.55-0.66,0.76-2.3,0.33-2.97C82.2,30.17,76.23,21.2,70.3,12.21
			c-3.69,11.67-8.14,17.01-15.74,17.05c-2.87,0.01-6.6-0.75-8.43-2.63c-3.41-3.5-5.72-8.08-8.8-12.66
			C24.58,31.16,14.08,50.1,12.37,72.7C11.71,81.28,15.13,88.54,24.16,92.64z M65.73,15C65.56,8.62,60.17,3.28,53.91,3.27
			c-6.61,0-12.19,5.69-11.99,12.23c0.21,6.68,5.22,11.56,11.83,11.52C60.75,26.98,65.91,21.8,65.73,15z M102.02,38.94
			c-0.65,0.18-1.3,0.36-1.94,0.54c2.21,7.89,4.42,15.78,6.64,23.67c1.31,0,1.18,0,2.49,0l6.63-23.85c-0.49-0.19-0.98-0.38-1.47-0.57
			c-0.73,1.32-1.46,2.64-1.81,3.28h-9.45C102.83,41.22,102.42,40.08,102.02,38.94z"/>
	</g>
	<linearGradient id="SVGID_2_" gradientUnits="userSpaceOnUse" x1="94.467" y1="16.9724" x2="121.447" y2="16.9724">
		<stop  offset="0" style="stop-color:#7A76FF"/>
		<stop  offset="0.5" style="stop-color:#7F75FF"/>
		<stop  offset="1" style="stop-color:#F256FD"/>
	</linearGradient>
	<path fill="none" stroke="url(#SVGID_2_)" stroke-width="2" stroke-miterlimit="10" d="M107.88,3.27c6.67,0,12.69,6.65,12.57,13.89
		c-0.12,7.08-5.8,13.33-12.25,13.5c-6.86,0.18-12.66-5.98-12.73-13.52C95.4,9.55,101.01,3.27,107.88,3.27z"/>
</g>
</svg>
