{
    "asset" : {
        "generator" : "Khronos glTF Blender I/O v3.4.50",
        "version" : "2.0"
    },
    "scene" : 0,
    "scenes" : [
        {
            "name" : "Scene",
            "nodes" : [
                0
            ]
        }
    ],
    "nodes" : [
        {
            "mesh" : 0,
            "name" : "M_Shoulders_L",
            "translation" : [
                0.8999999761581421,
                9.169896125793457,
                -0.45350226759910583
            ]
        }
    ],
    "materials" : [
        {
            "doubleSided" : true,
            "name" : "BaseMesh",
            "pbrMetallicRoughness" : {
                "baseColorFactor" : [
                    0.800000011920929,
                    0.800000011920929,
                    0.800000011920929,
                    1
                ],
                "metallicFactor" : 0,
                "roughnessFactor" : 0.4000000059604645
            }
        }
    ],
    "meshes" : [
        {
            "name" : "Cube.074",
            "primitives" : [
                {
                    "attributes" : {
                        "POSITION" : 0,
                        "TEXCOORD_0" : 1,
                        "NORMAL" : 2
                    },
                    "indices" : 3,
                    "material" : 0
                }
            ]
        }
    ],
    "accessors" : [
        {
            "bufferView" : 0,
            "componentType" : 5126,
            "count" : 2818,
            "max" : [
                0.6427303552627563,
                0.6026711463928223,
                1.0588493347167969
            ],
            "min" : [
                -2.44273042678833,
                -1.7204985618591309,
                -0.570166826248169
            ],
            "type" : "VEC3"
        },
        {
            "bufferView" : 1,
            "componentType" : 5126,
            "count" : 2818,
            "type" : "VEC2"
        },
        {
            "bufferView" : 2,
            "componentType" : 5126,
            "count" : 2818,
            "type" : "VEC3"
        },
        {
            "bufferView" : 3,
            "componentType" : 5123,
            "count" : 13824,
            "type" : "SCALAR"
        }
    ],
    "bufferViews" : [
        {
            "buffer" : 0,
            "byteLength" : 33816,
            "byteOffset" : 0,
            "target" : 34962
        },
        {
            "buffer" : 0,
            "byteLength" : 22544,
            "byteOffset" : 33816,
            "target" : 34962
        },
        {
            "buffer" : 0,
            "byteLength" : 33816,
            "byteOffset" : 56360,
            "target" : 34962
        },
        {
            "buffer" : 0,
            "byteLength" : 27648,
            "byteOffset" : 90176,
            "target" : 34963
        }
    ],
    "buffers" : [
        {
            "byteLength" : 117824,
            "uri" : "data:application/octet-stream;base64,"
        }
    ]
}
