{
    "asset" : {
        "generator" : "Khronos glTF Blender I/O v3.4.50",
        "version" : "2.0"
    },
    "scene" : 0,
    "scenes" : [
        {
            "name" : "Scene",
            "nodes" : [
                0,
                1,
                2,
                3,
                4,
                5,
                6
            ]
        }
    ],
    "nodes" : [
        {
            "mesh" : 0,
            "name" : "M_Finger_02_R",
            "translation" : [
                -2.75,
                5.415899753570557,
                0.015065876767039299
            ]
        },
        {
            "mesh" : 1,
            "name" : "M_Head",
            "translation" : [
                0,
                10.096274375915527,
                -0.2767128050327301
            ]
        },
        {
            "mesh" : 2,
            "name" : "M_Neck",
            "rotation" : [
                0.06529016047716141,
                0,
                0,
                0.9978663325309753
            ],
            "translation" : [
                0,
                9.535387992858887,
                -0.39453375339508057
            ]
        },
        {
            "mesh" : 3,
            "name" : "M_Shoulders_L",
            "translation" : [
                0.8999999761581421,
                9.169896125793457,
                -0.45350226759910583
            ]
        },
        {
            "mesh" : 4,
            "name" : "M_Stomach",
            "translation" : [
                0,
                6.824089050292969,
                0
            ]
        },
        {
            "mesh" : 5,
            "name" : "M_Upper_Leg_R",
            "translation" : [
                -0.550000011920929,
                6.158461093902588,
                0
            ]
        },
        {
            "mesh" : 6,
            "name" : "M_Hips.001",
            "translation" : [
                0,
                6.059520244598389,
                0
            ]
        }
    ],
    "materials" : [
        {
            "doubleSided" : true,
            "name" : "BaseMesh",
            "pbrMetallicRoughness" : {
                "baseColorFactor" : [
                    0.800000011920929,
                    0.800000011920929,
                    0.800000011920929,
                    1
                ],
                "metallicFactor" : 0,
                "roughnessFactor" : 0.4000000059604645
            }
        },
        {
            "doubleSided" : true,
            "name" : "BaseMesh.001",
            "pbrMetallicRoughness" : {
                "baseColorFactor" : [
                    0.800000011920929,
                    0.800000011920929,
                    0.800000011920929,
                    1
                ],
                "metallicFactor" : 0,
                "roughnessFactor" : 0.4000000059604645
            }
        },
        {
            "doubleSided" : true,
            "name" : "BaseMesh.002",
            "pbrMetallicRoughness" : {
                "baseColorFactor" : [
                    0.800000011920929,
                    0.800000011920929,
                    0.800000011920929,
                    1
                ],
                "metallicFactor" : 0,
                "roughnessFactor" : 0.4000000059604645
            }
        }
    ],
    "meshes" : [
        {
            "name" : "Cube.094",
            "primitives" : [
                {
                    "attributes" : {
                        "COLOR_0" : 0,
                        "POSITION" : 1,
                        "TEXCOORD_0" : 2,
                        "NORMAL" : 3
                    },
                    "indices" : 4,
                    "material" : 0
                },
                {
                    "attributes" : {
                        "COLOR_0" : 5,
                        "POSITION" : 6,
                        "TEXCOORD_0" : 7,
                        "NORMAL" : 8
                    },
                    "indices" : 9,
                    "material" : 1
                }
            ]
        },
        {
            "name" : "Cube.077",
            "primitives" : [
                {
                    "attributes" : {
                        "POSITION" : 10,
                        "TEXCOORD_0" : 11,
                        "NORMAL" : 12
                    },
                    "indices" : 13,
                    "material" : 0
                }
            ]
        },
        {
            "name" : "Cylinder.002",
            "primitives" : [
                {
                    "attributes" : {
                        "POSITION" : 14,
                        "TEXCOORD_0" : 15,
                        "NORMAL" : 16
                    },
                    "indices" : 17,
                    "material" : 0
                }
            ]
        },
        {
            "name" : "Cube.074",
            "primitives" : [
                {
                    "attributes" : {
                        "POSITION" : 18,
                        "TEXCOORD_0" : 19,
                        "NORMAL" : 20
                    },
                    "indices" : 21,
                    "material" : 0
                }
            ]
        },
        {
            "name" : "Cube.068",
            "primitives" : [
                {
                    "attributes" : {
                        "COLOR_0" : 22,
                        "POSITION" : 23,
                        "TEXCOORD_0" : 24,
                        "NORMAL" : 25
                    },
                    "indices" : 26,
                    "material" : 1
                }
            ]
        },
        {
            "name" : "Cube.085",
            "primitives" : [
                {
                    "attributes" : {
                        "POSITION" : 27,
                        "TEXCOORD_0" : 28,
                        "NORMAL" : 29
                    },
                    "indices" : 30,
                    "material" : 0
                }
            ]
        },
        {
            "name" : "Cube.001",
            "primitives" : [
                {
                    "attributes" : {
                        "POSITION" : 31,
                        "TEXCOORD_0" : 32,
                        "NORMAL" : 33
                    },
                    "indices" : 34,
                    "material" : 2
                }
            ]
        }
    ],
    "accessors" : [
        {
            "bufferView" : 0,
            "componentType" : 5123,
            "count" : 3824,
            "normalized" : true,
            "type" : "VEC4"
        },
        {
            "bufferView" : 1,
            "componentType" : 5126,
            "count" : 3824,
            "max" : [
                5.600736618041992,
                3.5444769859313965,
                0.1480526477098465
            ],
            "min" : [
                -0.10073614120483398,
                -0.5299925804138184,
                -1.0269509553909302
            ],
            "type" : "VEC3"
        },
        {
            "bufferView" : 2,
            "componentType" : 5126,
            "count" : 3824,
            "type" : "VEC2"
        },
        {
            "bufferView" : 3,
            "componentType" : 5126,
            "count" : 3824,
            "type" : "VEC3"
        },
        {
            "bufferView" : 4,
            "componentType" : 5123,
            "count" : 19296,
            "type" : "SCALAR"
        },
        {
            "bufferView" : 5,
            "componentType" : 5123,
            "count" : 4625,
            "normalized" : true,
            "type" : "VEC4"
        },
        {
            "bufferView" : 6,
            "componentType" : 5126,
            "count" : 4625,
            "max" : [
                5.6133246421813965,
                2.219583034515381,
                0.27161794900894165
            ],
            "min" : [
                -0.11332464218139648,
                -0.07215356826782227,
                -0.9318602085113525
            ],
            "type" : "VEC3"
        },
        {
            "bufferView" : 7,
            "componentType" : 5126,
            "count" : 4625,
            "type" : "VEC2"
        },
        {
            "bufferView" : 8,
            "componentType" : 5126,
            "count" : 4625,
            "type" : "VEC3"
        },
        {
            "bufferView" : 9,
            "componentType" : 5123,
            "count" : 23184,
            "type" : "SCALAR"
        },
        {
            "bufferView" : 10,
            "componentType" : 5126,
            "count" : 1741,
            "max" : [
                0.4848836660385132,
                1.1069583892822266,
                0.799685001373291
            ],
            "min" : [
                -0.4848836362361908,
                -0.3862438201904297,
                -0.5686891078948975
            ],
            "type" : "VEC3"
        },
        {
            "bufferView" : 11,
            "componentType" : 5126,
            "count" : 1741,
            "type" : "VEC2"
        },
        {
            "bufferView" : 12,
            "componentType" : 5126,
            "count" : 1741,
            "type" : "VEC3"
        },
        {
            "bufferView" : 13,
            "componentType" : 5123,
            "count" : 9216,
            "type" : "SCALAR"
        },
        {
            "bufferView" : 14,
            "componentType" : 5126,
            "count" : 286,
            "max" : [
                0.39375728368759155,
                0.6379671096801758,
                0.38839197158813477
            ],
            "min" : [
                -0.39375728368759155,
                -0.3055143356323242,
                -0.36619889736175537
            ],
            "type" : "VEC3"
        },
        {
            "bufferView" : 15,
            "componentType" : 5126,
            "count" : 286,
            "type" : "VEC2"
        },
        {
            "bufferView" : 16,
            "componentType" : 5126,
            "count" : 286,
            "type" : "VEC3"
        },
        {
            "bufferView" : 17,
            "componentType" : 5123,
            "count" : 948,
            "type" : "SCALAR"
        },
        {
            "bufferView" : 18,
            "componentType" : 5126,
            "count" : 2818,
            "max" : [
                0.6427303552627563,
                0.6026711463928223,
                1.0588493347167969
            ],
            "min" : [
                -2.44273042678833,
                -1.7204985618591309,
                -0.570166826248169
            ],
            "type" : "VEC3"
        },
        {
            "bufferView" : 19,
            "componentType" : 5126,
            "count" : 2818,
            "type" : "VEC2"
        },
        {
            "bufferView" : 20,
            "componentType" : 5126,
            "count" : 2818,
            "type" : "VEC3"
        },
        {
            "bufferView" : 21,
            "componentType" : 5123,
            "count" : 13824,
            "type" : "SCALAR"
        },
        {
            "bufferView" : 22,
            "componentType" : 5123,
            "count" : 1741,
            "normalized" : true,
            "type" : "VEC4"
        },
        {
            "bufferView" : 23,
            "componentType" : 5126,
            "count" : 1741,
            "max" : [
                0.7837728261947632,
                1.617387294769287,
                0.5456958413124084
            ],
            "min" : [
                -0.7837636470794678,
                -0.8692765235900879,
                -0.5253040194511414
            ],
            "type" : "VEC3"
        },
        {
            "bufferView" : 24,
            "componentType" : 5126,
            "count" : 1741,
            "type" : "VEC2"
        },
        {
            "bufferView" : 25,
            "componentType" : 5126,
            "count" : 1741,
            "type" : "VEC3"
        },
        {
            "bufferView" : 26,
            "componentType" : 5123,
            "count" : 9216,
            "type" : "SCALAR"
        },
        {
            "bufferView" : 27,
            "componentType" : 5126,
            "count" : 10464,
            "max" : [
                1.9829686880111694,
                0.4085211753845215,
                0.6190369129180908
            ],
            "min" : [
                -0.8829686045646667,
                -6.282124996185303,
                -0.8531074523925781
            ],
            "type" : "VEC3"
        },
        {
            "bufferView" : 28,
            "componentType" : 5126,
            "count" : 10464,
            "type" : "VEC2"
        },
        {
            "bufferView" : 29,
            "componentType" : 5126,
            "count" : 10464,
            "type" : "VEC3"
        },
        {
            "bufferView" : 30,
            "componentType" : 5123,
            "count" : 55296,
            "type" : "SCALAR"
        },
        {
            "bufferView" : 31,
            "componentType" : 5126,
            "count" : 1741,
            "max" : [
                0.9083384871482849,
                0.8120894432067871,
                0.6105977892875671
            ],
            "min" : [
                -0.905961811542511,
                -0.7974185943603516,
                -0.747622013092041
            ],
            "type" : "VEC3"
        },
        {
            "bufferView" : 32,
            "componentType" : 5126,
            "count" : 1741,
            "type" : "VEC2"
        },
        {
            "bufferView" : 33,
            "componentType" : 5126,
            "count" : 1741,
            "type" : "VEC3"
        },
        {
            "bufferView" : 34,
            "componentType" : 5123,
            "count" : 9216,
            "type" : "SCALAR"
        }
    ],
    "bufferViews" : [
        {
            "buffer" : 0,
            "byteLength" : 30592,
            "byteOffset" : 0,
            "target" : 34962
        },
        {
            "buffer" : 0,
            "byteLength" : 45888,
            "byteOffset" : 30592,
            "target" : 34962
        },
        {
            "buffer" : 0,
            "byteLength" : 30592,
            "byteOffset" : 76480,
            "target" : 34962
        },
        {
            "buffer" : 0,
            "byteLength" : 45888,
            "byteOffset" : 107072,
            "target" : 34962
        },
        {
            "buffer" : 0,
            "byteLength" : 38592,
            "byteOffset" : 152960,
            "target" : 34963
        },
        {
            "buffer" : 0,
            "byteLength" : 37000,
            "byteOffset" : 191552,
            "target" : 34962
        },
        {
            "buffer" : 0,
            "byteLength" : 55500,
            "byteOffset" : 228552,
            "target" : 34962
        },
        {
            "buffer" : 0,
            "byteLength" : 37000,
            "byteOffset" : 284052,
            "target" : 34962
        },
        {
            "buffer" : 0,
            "byteLength" : 55500,
            "byteOffset" : 321052,
            "target" : 34962
        },
        {
            "buffer" : 0,
            "byteLength" : 46368,
            "byteOffset" : 376552,
            "target" : 34963
        },
        {
            "buffer" : 0,
            "byteLength" : 20892,
            "byteOffset" : 422920,
            "target" : 34962
        },
        {
            "buffer" : 0,
            "byteLength" : 13928,
            "byteOffset" : 443812,
            "target" : 34962
        },
        {
            "buffer" : 0,
            "byteLength" : 20892,
            "byteOffset" : 457740,
            "target" : 34962
        },
        {
            "buffer" : 0,
            "byteLength" : 18432,
            "byteOffset" : 478632,
            "target" : 34963
        },
        {
            "buffer" : 0,
            "byteLength" : 3432,
            "byteOffset" : 497064,
            "target" : 34962
        },
        {
            "buffer" : 0,
            "byteLength" : 2288,
            "byteOffset" : 500496,
            "target" : 34962
        },
        {
            "buffer" : 0,
            "byteLength" : 3432,
            "byteOffset" : 502784,
            "target" : 34962
        },
        {
            "buffer" : 0,
            "byteLength" : 1896,
            "byteOffset" : 506216,
            "target" : 34963
        },
        {
            "buffer" : 0,
            "byteLength" : 33816,
            "byteOffset" : 508112,
            "target" : 34962
        },
        {
            "buffer" : 0,
            "byteLength" : 22544,
            "byteOffset" : 541928,
            "target" : 34962
        },
        {
            "buffer" : 0,
            "byteLength" : 33816,
            "byteOffset" : 564472,
            "target" : 34962
        },
        {
            "buffer" : 0,
            "byteLength" : 27648,
            "byteOffset" : 598288,
            "target" : 34963
        },
        {
            "buffer" : 0,
            "byteLength" : 13928,
            "byteOffset" : 625936,
            "target" : 34962
        },
        {
            "buffer" : 0,
            "byteLength" : 20892,
            "byteOffset" : 639864,
            "target" : 34962
        },
        {
            "buffer" : 0,
            "byteLength" : 13928,
            "byteOffset" : 660756,
            "target" : 34962
        },
        {
            "buffer" : 0,
            "byteLength" : 20892,
            "byteOffset" : 674684,
            "target" : 34962
        },
        {
            "buffer" : 0,
            "byteLength" : 18432,
            "byteOffset" : 695576,
            "target" : 34963
        },
        {
            "buffer" : 0,
            "byteLength" : 125568,
            "byteOffset" : 714008,
            "target" : 34962
        },
        {
            "buffer" : 0,
            "byteLength" : 83712,
            "byteOffset" : 839576,
            "target" : 34962
        },
        {
            "buffer" : 0,
            "byteLength" : 125568,
            "byteOffset" : 923288,
            "target" : 34962
        },
        {
            "buffer" : 0,
            "byteLength" : 110592,
            "byteOffset" : 1048856,
            "target" : 34963
        },
        {
            "buffer" : 0,
            "byteLength" : 20892,
            "byteOffset" : 1159448,
            "target" : 34962
        },
        {
            "buffer" : 0,
            "byteLength" : 13928,
            "byteOffset" : 1180340,
            "target" : 34962
        },
        {
            "buffer" : 0,
            "byteLength" : 20892,
            "byteOffset" : 1194268,
            "target" : 34962
        },
        {
            "buffer" : 0,
            "byteLength" : 18432,
            "byteOffset" : 1215160,
            "target" : 34963
        }
    ],
    "buffers" : [
        {
            "byteLength" : 1233592,
            "uri" : "data:application/octet-stream;base64,"
        }
    ]
}
