{
    "asset" : {
        "generator" : "Khronos glTF Blender I/O v3.4.50",
        "version" : "2.0"
    },
    "scene" : 0,
    "scenes" : [
        {
            "name" : "Scene",
            "nodes" : [
                0
            ]
        }
    ],
    "nodes" : [
        {
            "mesh" : 0,
            "name" : "M_Upper_Leg_R",
            "translation" : [
                -0.550000011920929,
                6.158461093902588,
                0
            ]
        }
    ],
    "materials" : [
        {
            "doubleSided" : true,
            "name" : "BaseMesh",
            "pbrMetallicRoughness" : {
                "baseColorFactor" : [
                    0.800000011920929,
                    0.800000011920929,
                    0.800000011920929,
                    1
                ],
                "metallicFactor" : 0,
                "roughnessFactor" : 0.4000000059604645
            }
        }
    ],
    "meshes" : [
        {
            "name" : "Cube.085",
            "primitives" : [
                {
                    "attributes" : {
                        "POSITION" : 0,
                        "TEXCOORD_0" : 1,
                        "NORMAL" : 2
                    },
                    "indices" : 3,
                    "material" : 0
                }
            ]
        }
    ],
    "accessors" : [
        {
            "bufferView" : 0,
            "componentType" : 5126,
            "count" : 10464,
            "max" : [
                1.9829686880111694,
                0.4085211753845215,
                0.6190369129180908
            ],
            "min" : [
                -0.8829686045646667,
                -6.282124996185303,
                -0.8531074523925781
            ],
            "type" : "VEC3"
        },
        {
            "bufferView" : 1,
            "componentType" : 5126,
            "count" : 10464,
            "type" : "VEC2"
        },
        {
            "bufferView" : 2,
            "componentType" : 5126,
            "count" : 10464,
            "type" : "VEC3"
        },
        {
            "bufferView" : 3,
            "componentType" : 5123,
            "count" : 55296,
            "type" : "SCALAR"
        }
    ],
    "bufferViews" : [
        {
            "buffer" : 0,
            "byteLength" : 125568,
            "byteOffset" : 0,
            "target" : 34962
        },
        {
            "buffer" : 0,
            "byteLength" : 83712,
            "byteOffset" : 125568,
            "target" : 34962
        },
        {
            "buffer" : 0,
            "byteLength" : 125568,
            "byteOffset" : 209280,
            "target" : 34962
        },
        {
            "buffer" : 0,
            "byteLength" : 110592,
            "byteOffset" : 334848,
            "target" : 34963
        }
    ],
    "buffers" : [
        {
            "byteLength" : 445440,
            "uri" : "data:application/octet-stream;base64,"
        }
    ]
}
